<?xml version="1.0" encoding="utf-8"?>
<!-- Generator: Adobe Illustrator 14.0.0, SVG Export Plug-In . SVG Version: 6.00 Build 43363)  -->
<!DOCTYPE svg PUBLIC "-//W3C//DTD SVG 1.1//EN" "http://www.w3.org/Graphics/SVG/1.1/DTD/svg11.dtd">
<svg version="1.1" xmlns="http://www.w3.org/2000/svg" xmlns:xlink="http://www.w3.org/1999/xlink" x="0px" y="0px"
	 width="7831.02px" height="1585.801px" viewBox="0 0 7831.02 1585.801" enable-background="new 0 0 7831.02 1585.801"
	 xml:space="preserve">
<g id="Logo__x22_JO_x22__Teil_1_">
	<g id="_x22_J_x22__Blatt_Horizontal_Teil_2">
		<g>
			<path fill="#3B4D4F" d="M3199.842,604.905c-101.172,15.346-178.06,91.603-178.06,183.396c0,1.763,0.035,3.52,0.091,5.271h195.613
				V604.905H3199.842z"/>
		</g>
	</g>
	<g id="_x22_J_x22__Blatt_Horizontal_Teil_1">
		<g>
			<path fill="#3B4D4F" d="M3397.188,604.905h-196.513v188.667h18.547c101.171-15.348,178.056-91.604,178.056-183.396
				C3397.278,608.413,3397.244,606.656,3397.188,604.905z"/>
		</g>
	</g>
	<g id="_x22_J_x22__Blatt_Vertikal_Teil_1">
		<g>
			<path fill="#3B4D4F" d="M3821.405,619.281c1.763,0,3.519-0.035,5.27-0.091v-2.606h-34.736
				C3801.537,618.351,3811.377,619.281,3821.405,619.281z M3821.405,188.044c-91.749,0-167.99,76.831-183.376,177.957v10.579
				h188.646V188.135C3824.924,188.079,3823.167,188.044,3821.405,188.044z"/>
		</g>
	</g>
	<g id="_x22_J_x22__Blatt_Vertikal_Teil_2">
		<g>
			<path fill="#3B4D4F" d="M3826.675,368.75h-188.646v194.736c1.751,0.056,3.507,0.091,5.27,0.091
				c91.771,0,168.017-76.873,183.376-178.035V368.75z"/>
		</g>
	</g>
	<g id="_x22_J_x22__Kreis_Aussen">
		<g>
			<polygon fill="#3B4D4F" points="3858.763,991.359 3858.763,819.241 3743.244,819.241 3743.28,820.744 3742.637,837.691 
				3740.948,854.564 3738.22,871.295 3734.463,887.82 3729.694,904.072 3723.929,919.988 3717.192,935.504 3709.51,950.561 
				3700.911,965.096 3691.433,979.055 3681.11,992.381 3669.984,1005.024 3658.099,1016.93 3645.501,1028.055 3632.241,1038.355 
				3618.372,1047.788 3603.946,1056.317 3589.021,1063.909 3573.658,1070.533 3557.915,1076.166 3541.854,1080.781 
				3525.541,1084.363 3509.038,1086.896 3492.411,1088.373 3475.726,1088.785 3459.049,1088.131 3442.444,1086.416 
				3425.979,1083.644 3409.717,1079.827 3393.723,1074.98 3378.06,1069.122 3362.791,1062.275 3347.974,1054.468 3333.669,1045.733 
				3319.933,1036.1 3306.817,1025.611 3294.377,1014.305 3282.659,1002.228 3271.712,989.427 3261.576,975.953 3252.292,961.858 
				3243.899,947.2 3236.428,932.034 3229.909,916.421 3224.366,900.424 3219.824,884.105 3216.299,867.528 3213.806,850.759 
				3212.353,833.864 3212.002,819.241 3021.673,819.241 3021.494,829.505 3022.796,858.137 3025.891,886.63 3030.77,914.873 
				3037.412,942.753 3045.792,970.161 3055.875,996.989 3067.624,1023.13 3080.991,1048.483 3095.921,1072.946 3112.361,1096.423 
				3130.24,1118.822 3149.491,1140.052 3170.037,1160.034 3191.796,1178.685 3214.685,1195.932 3238.611,1211.708 
				3263.479,1225.952 3289.193,1238.605 3315.651,1249.618 3342.748,1258.948 3370.376,1266.558 3398.429,1272.418 
				3426.794,1276.505 3455.36,1278.803 3484.014,1279.302 3512.642,1278.001 3541.131,1274.905 3569.371,1270.026 3597.25,1263.383 
				3624.654,1255.002 3651.479,1244.917 3677.618,1233.167 3702.969,1219.799 3727.428,1204.866 3750.903,1188.426 3773.3,1170.545 
				3794.528,1151.292 3814.507,1130.744 3833.156,1108.981 3850.403,1086.091 3866.178,1062.164 3880.419,1037.292 
				3893.07,1011.576 3901.485,991.359 			"/>
		</g>
	</g>
	<g id="_x22_O_x22__Kreis_Aussen">
		<g>
			<path fill="#3B4D4F" d="M4651.119,788.104l-3.097-28.494l-4.878-28.242l-6.643-27.88l-8.379-27.408l-10.085-26.829
				l-11.748-26.142l-13.366-25.352l-14.934-24.463l-16.438-23.478l-17.88-22.398l-19.25-21.231l-20.546-19.981l-21.761-18.651
				l-22.888-17.248l-23.925-15.776l-24.868-14.244l-25.714-12.652l-26.459-11.014l-27.097-9.33l-27.629-7.61l-28.052-5.86
				l-28.365-4.087l-28.566-2.297l-28.653-0.499l-28.628,1.301l-28.491,3.096l-28.239,4.879l-27.878,6.643l-27.404,8.381
				l-26.826,10.085l-26.139,11.75l-25.35,13.368l-24.46,14.934l-23.475,16.439l-22.396,17.881l-21.23,19.253l-19.978,20.548
				l-18.649,21.761l-17.247,22.891l-15.774,23.927l-14.242,24.872l-12.651,25.716l-11.013,26.461l-9.328,27.099l-7.61,27.632
				l-5.859,28.055l-4.087,28.368l-1.767,21.984v54.98h-0.132l0.404,8.893l3.097,28.493l4.877,28.242l6.643,27.881l8.38,27.407
				l10.084,26.828l11.749,26.142l13.366,25.353l14.932,24.463l16.438,23.478l17.88,22.398l19.251,21.23l20.546,19.981l21.759,18.651
				l22.888,17.247l23.926,15.776l24.869,14.243l25.713,12.653l26.458,11.013l27.097,9.33l27.629,7.61l28.053,5.86l28.366,4.087
				l28.564,2.298l28.653,0.499l28.629-1.301l28.49-3.097l28.238-4.879l27.878-6.643l27.406-8.381l26.825-10.086l26.139-11.749
				l25.349-13.368l24.462-14.934l23.474-16.439l22.397-17.881l21.229-19.254l19.979-20.548l18.648-21.763l17.245-22.89
				l15.775-23.928l14.24-24.871l12.653-25.717l11.013-26.461l9.328-27.099l7.609-27.633l5.859-28.055l4.087-28.367l2.298-28.569
				l0.5-28.656L4651.119,788.104z M4459.628,845.46l-1.916,16.579l-2.953,16.426l-3.974,16.208l-4.982,15.926l-5.97,15.58
				l-6.935,15.174l-7.87,14.708l-8.776,14.183l-9.647,13.603l-10.479,12.969l-11.271,12.282l-12.018,11.55l-12.718,10.77
				l-13.368,9.948l-13.964,9.088l-14.507,8.189l-14.99,7.261l-15.415,6.303l-15.779,5.32l-16.082,4.315l-16.318,3.296l-16.495,2.26
				l-16.603,1.219l-16.648,0.171l-16.625-0.877l-16.537-1.923l-16.384-2.959l-16.166-3.985l-15.886-4.995l-15.54-5.984
				l-15.136-6.951l-14.669-7.891l-14.147-8.799l-13.566-9.672l-12.937-10.507l-12.252-11.3l-11.521-12.05l-10.742-12.75
				l-9.923-13.401l-9.063-14.001l-8.169-14.542l-7.242-15.028l-6.286-15.455l-5.306-15.82l-4.306-16.122l-3.286-16.362
				l-2.256-16.536l-1.216-16.646l-0.17-16.689l0.874-16.668l1.919-16.579l2.951-16.426l3.975-16.208l4.982-15.925l5.969-15.58
				l6.935-15.174l7.871-14.708l8.774-14.183l9.647-13.602l10.48-12.969l11.271-12.283l12.02-11.549l12.718-10.77l13.368-9.948
				l13.964-9.087l14.506-8.19l14.989-7.261l15.416-6.303l15.778-5.32l16.082-4.316l16.321-3.294l16.494-2.261l16.604-1.219
				l16.646-0.171l16.625,0.877l16.538,1.923l16.384,2.959l16.166,3.985l15.886,4.994l15.54,5.986l15.136,6.951l14.67,7.891
				l14.146,8.799l13.567,9.671l12.936,10.507l12.252,11.3l11.521,12.049l10.741,12.75l9.923,13.402l9.064,14l8.169,14.542
				l7.242,15.028l6.286,15.455l5.307,15.82l4.305,16.122l3.287,16.362l2.255,16.536l1.215,16.646l0.172,16.688L4459.628,845.46z"/>
		</g>
	</g>
</g>
<g id="_x22_JA_x22__Balken_1_">
	<g id="Trennlinie">
		<g>
			<rect x="2884.974" y="0.235" fill-rule="evenodd" clip-rule="evenodd" fill="#CCCCCC" width="10.247" height="1585.523"/>
		</g>
	</g>
	<g id="A1_Balken">
		<g>
			<polygon fill-rule="evenodd" clip-rule="evenodd" fill="#3B4D4F" points="1621.491,203.054 1254.633,203.517 1849.188,1365.13 
				2215.01,1364.667 			"/>
		</g>
	</g>
	<g id="A1_Strich_-_Kappe_Unten">
		<g>
			<polygon fill="#3B4D4F" points="2333.646,1438.654 2325.515,1438.246 2317.428,1437.402 2309.419,1436.127 2301.521,1434.424 
				2293.763,1432.301 2286.175,1429.766 2278.79,1426.831 2271.635,1423.503 2264.738,1419.799 2258.128,1415.733 2251.83,1411.32 
				2245.869,1406.578 2240.267,1401.526 2235.048,1396.183 2230.233,1390.571 2225.839,1384.711 2221.886,1378.628 
				2218.387,1372.346 2215.356,1365.887 2213.596,1361.893 2093.916,1361.79 2094.75,1359.666 2096.857,1352.924 2098.468,1346.083 
				2099.575,1339.167 2100.176,1332.206 2100.266,1325.226 2099.845,1318.255 2098.917,1311.321 2097.483,1304.449 
				2095.55,1297.668 2093.125,1291.006 2090.219,1284.488 2086.84,1278.139 2083.006,1271.986 2078.728,1266.05 2074.026,1260.358 
				2068.917,1254.93 2063.422,1249.789 2057.562,1244.955 2051.36,1240.446 2044.84,1236.28 2038.029,1232.475 2030.954,1229.043 
				2023.642,1226.001 2016.121,1223.361 2008.422,1221.13 2000.576,1219.319 1992.613,1217.936 1984.564,1216.984 
				1976.462,1216.468 1968.338,1216.391 1960.225,1216.751 1952.153,1217.55 1944.156,1218.781 1936.266,1220.442 
				1928.511,1222.526 1920.925,1225.024 1913.535,1227.924 1906.373,1231.22 1899.465,1234.894 1892.84,1238.935 1886.524,1243.324 
				1880.539,1248.046 1874.913,1253.082 1869.665,1258.41 1864.815,1264.012 1860.386,1269.864 1856.395,1275.943 
				1852.854,1282.226 1849.779,1288.687 1847.184,1295.302 1845.076,1302.043 1843.465,1308.885 1842.357,1315.8 1841.758,1322.762 
				1841.667,1329.742 1842.088,1336.713 1843.017,1343.648 1844.45,1350.519 1846.383,1357.299 1848.808,1363.961 1851.715,1370.48 
				1855.092,1376.829 1858.928,1382.982 1863.204,1388.917 1867.906,1394.61 1873.015,1400.038 1878.51,1405.179 1884.372,1410.013 
				1890.573,1414.522 1897.093,1418.688 1903.902,1422.493 1910.98,1425.924 1918.292,1428.965 1925.812,1431.607 1933.51,1433.838 
				1941.357,1435.649 1949.32,1437.033 1957.369,1437.984 1965.471,1438.5 1969.656,1438.54 1969.657,1438.884 2337.62,1438.884 
				2337.716,1438.639 			"/>
		</g>
	</g>
	<g id="A1_Strich_-_Kappe_Oben">
		<g>
			<polygon fill="#3B4D4F" points="1629.895,234.521 1628.966,227.587 1627.533,220.716 1625.6,213.936 1623.175,207.274 
				1620.268,200.755 1616.891,194.406 1613.056,188.253 1608.778,182.318 1604.077,176.625 1598.967,171.197 1593.472,166.056 
				1587.612,161.222 1581.41,156.713 1574.89,152.547 1568.078,148.742 1561.003,145.312 1553.69,142.269 1546.171,139.628 
				1538.472,137.397 1530.626,135.586 1522.663,134.202 1514.614,133.251 1506.513,132.735 1502.328,132.696 1502.328,132.351 
				1149.72,132.351 1154.343,132.842 1162.291,134.132 1170.129,135.853 1177.827,137.999 1185.355,140.561 1192.683,143.529 
				1199.783,146.892 1206.625,150.636 1213.185,154.746 1219.435,159.208 1225.351,164.001 1230.909,169.108 1236.086,174.508 
				1240.865,180.182 1245.224,186.104 1249.147,192.253 1252.62,198.605 1255.626,205.133 1256.188,206.618 1379.177,206.618 
				1377.233,211.569 1375.126,218.311 1373.515,225.152 1372.408,232.068 1371.807,239.03 1371.717,246.009 1372.137,252.981 
				1373.066,259.916 1374.5,266.786 1376.432,273.566 1378.858,280.229 1381.764,286.748 1385.142,293.096 1388.977,299.25 
				1393.253,305.185 1397.956,310.877 1403.065,316.305 1408.56,321.446 1414.42,326.28 1420.622,330.79 1427.143,334.955 
				1433.954,338.76 1441.029,342.19 1448.341,345.233 1455.862,347.875 1463.56,350.105 1471.406,351.916 1479.37,353.3 
				1487.418,354.251 1495.521,354.767 1503.644,354.844 1511.758,354.484 1519.83,353.686 1527.826,352.454 1535.717,350.793 
				1543.471,348.709 1551.058,346.211 1558.447,343.311 1565.61,340.015 1572.517,336.341 1579.142,332.3 1585.459,327.911 
				1591.443,323.189 1597.07,318.154 1602.318,312.825 1607.166,307.223 1611.595,301.372 1615.588,295.292 1619.128,289.01 
				1622.204,282.548 1624.799,275.933 1626.907,269.192 1628.517,262.35 1629.625,255.435 1630.225,248.473 1630.316,241.493 			"/>
		</g>
	</g>
	<g id="A2_Balken">
		<g>
			<polygon fill-rule="evenodd" clip-rule="evenodd" fill="#A6CEFF" points="2077.777,203.054 1710.92,203.517 2305.476,1365.13 
				2671.298,1364.667 			"/>
		</g>
	</g>
	<g id="A2_Strich_-_Kappe_Unten">
		<g>
			<polygon fill="#A6CEFF" points="2789.934,1438.654 2781.802,1438.246 2773.715,1437.402 2765.707,1436.127 2757.808,1434.424 
				2750.05,1432.301 2742.463,1429.766 2735.077,1426.831 2727.922,1423.503 2721.026,1419.799 2714.416,1415.733 2708.116,1411.32 
				2702.156,1406.578 2696.554,1401.526 2691.336,1396.183 2686.521,1390.571 2682.126,1384.711 2678.173,1378.628 
				2674.673,1372.346 2671.644,1365.887 2669.884,1361.893 2550.203,1361.79 2551.037,1359.666 2553.145,1352.924 
				2554.755,1346.083 2555.863,1339.167 2556.462,1332.206 2556.552,1325.226 2556.132,1318.255 2555.204,1311.321 
				2553.771,1304.449 2551.837,1297.668 2549.413,1291.006 2546.506,1284.488 2543.128,1278.139 2539.293,1271.986 
				2535.016,1266.05 2530.314,1260.358 2525.205,1254.93 2519.709,1249.789 2513.85,1244.955 2507.647,1240.446 2501.127,1236.28 
				2494.317,1232.475 2487.241,1229.043 2479.928,1226.001 2472.408,1223.361 2464.71,1221.13 2456.864,1219.319 2448.9,1217.936 
				2440.851,1216.984 2432.75,1216.468 2424.626,1216.391 2416.512,1216.751 2408.441,1217.55 2400.444,1218.781 2392.552,1220.442 
				2384.798,1222.526 2377.211,1225.024 2369.823,1227.924 2362.66,1231.22 2355.752,1234.894 2349.128,1238.935 2342.811,1243.324 
				2336.827,1248.046 2331.2,1253.082 2325.952,1258.41 2321.104,1264.012 2316.675,1269.864 2312.682,1275.943 2309.142,1282.226 
				2306.067,1288.687 2303.471,1295.302 2301.364,1302.043 2299.752,1308.885 2298.645,1315.8 2298.044,1322.762 2297.955,1329.742 
				2298.375,1336.713 2299.304,1343.648 2300.738,1350.519 2302.671,1357.299 2305.095,1363.961 2308.002,1370.48 2311.38,1376.829 
				2315.214,1382.982 2319.491,1388.917 2324.194,1394.61 2329.302,1400.038 2334.798,1405.179 2340.659,1410.013 
				2346.861,1414.522 2353.38,1418.688 2360.191,1422.493 2367.267,1425.924 2374.579,1428.965 2382.1,1431.607 2389.798,1433.838 
				2397.644,1435.649 2405.607,1437.033 2413.656,1437.984 2421.758,1438.5 2425.944,1438.54 2425.945,1438.884 2793.907,1438.884 
				2794.003,1438.639 			"/>
		</g>
	</g>
	<g id="A2_Strich_-_Kappe_Oben">
		<g>
			<polygon fill="#A6CEFF" points="2086.183,234.521 2085.253,227.587 2083.819,220.716 2081.886,213.936 2079.462,207.274 
				2076.555,200.755 2073.177,194.406 2069.343,188.253 2065.066,182.318 2060.363,176.625 2055.254,171.197 2049.759,166.056 
				2043.899,161.222 2037.696,156.713 2031.178,152.547 2024.366,148.742 2017.291,145.312 2009.978,142.269 2002.458,139.628 
				1994.759,137.397 1986.914,135.586 1978.95,134.202 1970.902,133.251 1962.799,132.735 1958.614,132.696 1958.614,132.351 
				1606.007,132.351 1610.63,132.842 1618.577,134.132 1626.415,135.853 1634.113,137.999 1641.641,140.561 1648.971,143.529 
				1656.07,146.892 1662.913,150.636 1669.472,154.746 1675.722,159.208 1681.637,164.001 1687.195,169.108 1692.374,174.508 
				1697.152,180.182 1701.512,186.104 1705.435,192.253 1708.907,198.605 1711.914,205.133 1712.476,206.618 1835.463,206.618 
				1833.521,211.569 1831.414,218.311 1829.802,225.152 1828.695,232.068 1828.095,239.03 1828.005,246.009 1828.425,252.981 
				1829.353,259.916 1830.788,266.786 1832.72,273.566 1835.145,280.229 1838.052,286.748 1841.43,293.096 1845.263,299.25 
				1849.541,305.185 1854.244,310.877 1859.353,316.305 1864.848,321.446 1870.708,326.28 1876.911,330.79 1883.429,334.955 
				1890.241,338.76 1897.316,342.19 1904.628,345.233 1912.148,347.875 1919.848,350.105 1927.693,351.916 1935.657,353.3 
				1943.705,354.251 1951.808,354.767 1959.932,354.844 1968.046,354.484 1976.116,353.686 1984.113,352.454 1992.005,350.793 
				1999.759,348.709 2007.346,346.211 2014.734,343.311 2021.897,340.015 2028.805,336.341 2035.429,332.3 2041.747,327.911 
				2047.73,323.189 2053.357,318.154 2058.606,312.825 2063.454,307.223 2067.883,301.372 2071.875,295.292 2075.417,289.01 
				2078.49,282.548 2081.086,275.933 2083.194,269.192 2084.805,262.35 2085.912,255.435 2086.512,248.473 2086.602,241.493 			"/>
		</g>
	</g>
	<g id="A3_Balken">
		<g>
			<polygon fill="#A6CEFF" points="1307.21,691.358 963.187,1364.667 1329.008,1365.13 1546.916,939.394 1419.068,691.358 			"/>
		</g>
	</g>
	<g id="A3_Strich_-_Kappe_Unten">
		<g>
			<polygon fill="#A6CEFF" points="1336.44,1322.762 1335.84,1315.8 1334.732,1308.885 1333.122,1302.043 1331.014,1295.302 
				1328.417,1288.687 1325.344,1282.226 1321.802,1275.943 1317.811,1269.864 1313.38,1264.012 1308.534,1258.41 1303.285,1253.082 
				1297.658,1248.046 1291.674,1243.324 1285.357,1238.935 1278.733,1234.894 1271.824,1231.22 1264.662,1227.924 
				1257.272,1225.024 1249.687,1222.526 1241.932,1220.442 1234.041,1218.781 1226.044,1217.55 1217.973,1216.751 
				1209.859,1216.391 1201.735,1216.468 1193.632,1216.984 1185.584,1217.936 1177.622,1219.319 1169.775,1221.13 
				1162.077,1223.361 1154.556,1226.001 1147.243,1229.043 1140.168,1232.475 1133.358,1236.28 1126.837,1240.446 
				1120.635,1244.955 1114.776,1249.789 1109.279,1254.93 1104.17,1260.358 1099.469,1266.05 1095.191,1271.986 1091.357,1278.139 
				1087.979,1284.488 1085.072,1291.006 1082.648,1297.668 1080.714,1304.449 1079.281,1311.321 1078.353,1318.255 
				1077.933,1325.226 1078.021,1332.206 1078.622,1339.167 1079.73,1346.083 1081.34,1352.924 1083.448,1359.666 1084.282,1361.79 
				964.601,1361.893 962.84,1365.887 959.811,1372.346 956.312,1378.628 952.358,1384.711 947.964,1390.571 943.149,1396.183 
				937.931,1401.526 932.33,1406.578 926.368,1411.32 920.07,1415.733 913.459,1419.799 906.563,1423.503 899.407,1426.831 
				892.022,1429.766 884.435,1432.301 876.677,1434.424 868.778,1436.127 860.769,1437.402 852.682,1438.246 844.55,1438.654 
				840.481,1438.639 840.578,1438.884 1208.541,1438.884 1208.541,1438.54 1212.727,1438.5 1220.829,1437.984 1228.877,1437.033 
				1236.841,1435.649 1244.687,1433.838 1252.385,1431.607 1259.906,1428.965 1267.218,1425.924 1274.293,1422.493 
				1281.105,1418.688 1287.624,1414.522 1293.827,1410.013 1299.687,1405.179 1305.182,1400.038 1310.292,1394.61 
				1314.994,1388.917 1319.271,1382.982 1323.105,1376.829 1326.482,1370.48 1329.389,1363.961 1331.815,1357.299 
				1333.748,1350.519 1335.182,1343.648 1336.11,1336.713 1336.53,1329.742 			"/>
		</g>
	</g>
	<g id="A3_Strich_-_Kappe_Oben">
		<g>
			<polygon fill-rule="evenodd" clip-rule="evenodd" fill="#A6CEFF" points="1440.683,807.237 1440.153,795.543 1439.318,783.953 
				1438.182,772.511 1436.75,761.263 1435.026,750.253 1433.017,739.526 1430.732,729.122 1428.18,719.083 1425.37,709.448 
				1423.248,700.257 1419.183,691.786 1415.511,683.346 1411.792,675.693 1407.88,668.617 1403.792,662.144 1399.541,656.3 
				1395.146,651.108 1390.625,646.591 1385.994,642.763 1381.271,639.642 1376.477,637.239 1371.63,635.563 1366.749,634.623 
				1361.851,634.419 1356.959,634.956 1352.09,636.229 1347.265,638.233 1342.501,640.962 1337.818,644.403 1333.234,648.544 
				1328.767,653.368 1324.436,658.856 1320.257,664.986 1316.245,671.735 1312.418,679.075 1308.791,686.979 1305.377,695.413 
				1302.191,704.346 1299.245,713.742 1296.55,723.563 1294.117,733.771 1291.955,744.327 1290.074,755.187 1288.48,766.31 
				1287.181,777.651 1286.18,789.165 1285.483,800.808 1285.091,812.533 1285.006,824.293 1285.23,836.043 1285.759,847.738 
				1286.595,859.328 1287.729,870.77 1289.163,882.019 1290.887,893.028 1292.896,903.756 1295.181,914.16 1297.733,924.199 
				1300.543,933.833 1303.6,943.024 1306.889,951.737 1310.402,959.935 1314.121,967.588 1318.033,974.666 1322.122,981.138 
				1326.373,986.981 1330.766,992.172 1335.288,996.691 1339.919,1000.517 1344.641,1003.639 1349.435,1006.042 1354.283,1007.717 
				1359.164,1008.658 1364.061,1008.861 1368.954,1008.325 1373.822,1007.053 1378.648,1005.048 1383.411,1002.32 1388.095,998.878 
				1392.678,994.737 1397.146,989.914 1401.477,984.425 1405.656,978.294 1409.667,971.545 1413.494,964.206 1417.122,956.302 
				1420.535,947.868 1423.721,938.935 1426.668,929.54 1429.363,919.718 1431.796,909.51 1433.958,898.955 1435.839,888.094 
				1437.433,876.971 1438.731,865.631 1439.732,854.116 1440.43,842.474 1440.822,830.749 1440.906,818.988 			"/>
		</g>
	</g>
	<g id="J_Balken_2">
		<g>
			<path fill="#3B4D4F" d="M1075.666,243.668L502.898,1364.667l365.82,0.464l445.66-870.707l-129.25-250.755H1075.666z
				 M1415.417,243.668l1.239,50.93l26.068-50.93H1415.417z"/>
		</g>
	</g>
	<g id="J_Strich_-_Kappe_Unten">
		<g>
			<polygon fill="#3B4D4F" points="876.15,1322.762 875.549,1315.8 874.442,1308.885 872.832,1302.043 870.724,1295.302 
				868.127,1288.687 865.054,1282.226 861.513,1275.943 857.521,1269.864 853.09,1264.012 848.244,1258.41 842.995,1253.082 
				837.369,1248.046 831.384,1243.324 825.069,1238.935 818.443,1234.894 811.534,1231.22 804.372,1227.924 796.983,1225.024 
				789.396,1222.526 781.643,1220.442 773.751,1218.781 765.754,1217.55 757.684,1216.751 749.569,1216.391 741.445,1216.468 
				733.343,1216.984 725.294,1217.936 717.332,1219.319 709.486,1221.13 701.786,1223.361 694.266,1226.001 686.954,1229.043 
				679.878,1232.475 673.067,1236.28 666.547,1240.446 660.346,1244.955 654.486,1249.789 648.99,1254.93 643.88,1260.358 
				639.912,1265.163 639.694,1264.867 634.922,1259.202 629.745,1253.805 624.183,1248.7 618.258,1243.903 611.996,1239.435 
				605.418,1235.314 598.552,1231.556 591.426,1228.175 584.066,1225.187 576.502,1222.599 568.764,1220.425 560.881,1218.673 
				552.887,1217.35 544.812,1216.459 536.687,1216.006 528.545,1215.993 520.418,1216.417 512.338,1217.28 504.338,1218.576 
				496.449,1220.301 488.7,1222.449 481.124,1225.01 473.75,1227.974 466.608,1231.331 459.725,1235.065 453.128,1239.164 
				446.844,1243.609 440.898,1248.385 435.313,1253.472 430.11,1258.85 425.312,1264.5 420.936,1270.395 416.999,1276.515 
				413.518,1282.835 410.505,1289.331 407.974,1295.977 405.934,1302.746 404.392,1309.611 403.356,1316.545 402.828,1323.522 
				402.812,1330.514 403.307,1337.493 404.311,1344.431 405.821,1351.301 407.83,1358.078 410.331,1364.731 413.313,1371.237 
				416.764,1377.569 420.672,1383.703 425.021,1389.614 429.794,1395.279 434.971,1400.674 440.533,1405.781 446.457,1410.578 
				452.72,1415.044 459.297,1419.166 466.163,1422.923 473.29,1426.304 480.65,1429.293 488.213,1431.88 495.952,1434.054 
				503.833,1435.807 511.829,1437.13 519.904,1438.02 528.029,1438.473 534.384,1438.484 534.384,1438.484 534.426,1438.484 
				536.17,1438.487 536.227,1438.484 742.208,1438.484 744.313,1438.578 752.437,1438.5 760.539,1437.984 768.587,1437.033 
				776.551,1435.649 784.397,1433.838 792.096,1431.607 799.616,1428.965 806.928,1425.924 814.003,1422.493 820.815,1418.688 
				827.335,1414.522 833.538,1410.013 839.397,1405.179 844.892,1400.038 850.002,1394.61 854.704,1388.917 858.98,1382.982 
				862.816,1376.829 866.192,1370.48 869.099,1363.961 871.525,1357.299 873.458,1350.519 874.892,1343.648 875.82,1336.713 
				876.24,1329.742 			"/>
		</g>
	</g>
	<g id="J_Strich_-_Kappe_Oben">
		<g>
			<polygon fill-rule="evenodd" clip-rule="evenodd" fill="#3B4D4F" points="1208.136,362.553 1207.607,350.859 1206.771,339.269 
				1205.636,327.827 1204.203,316.58 1202.479,305.569 1200.47,294.841 1198.185,284.437 1195.633,274.399 1192.823,264.765 
				1190.701,255.574 1186.637,247.102 1182.964,238.663 1179.245,231.01 1175.333,223.933 1171.244,217.459 1166.994,211.616 
				1162.6,206.424 1158.078,201.906 1153.447,198.08 1148.726,194.958 1143.931,192.555 1139.083,190.88 1134.202,189.939 
				1129.305,189.736 1124.412,190.272 1119.543,191.545 1114.718,193.549 1109.955,196.278 1105.272,199.719 1100.688,203.86 
				1096.221,208.684 1091.889,214.172 1087.709,220.303 1083.699,227.052 1079.872,234.392 1076.245,242.295 1072.831,250.729 
				1069.645,259.662 1066.698,269.058 1064.002,278.879 1061.569,289.088 1059.409,299.643 1057.528,310.503 1055.934,321.626 
				1054.635,332.967 1053.634,344.481 1052.937,356.125 1052.545,367.85 1052.46,379.61 1052.684,391.36 1053.213,403.054 
				1054.048,414.645 1055.184,426.086 1056.617,437.335 1058.34,448.344 1060.349,459.072 1062.634,469.477 1065.187,479.515 
				1067.998,489.149 1071.052,498.34 1074.342,507.053 1077.855,515.251 1081.574,522.904 1085.485,529.98 1089.575,536.455 
				1093.825,542.297 1098.22,547.489 1102.742,552.007 1107.373,555.834 1112.094,558.956 1116.889,561.358 1121.736,563.034 
				1126.618,563.974 1131.515,564.177 1136.408,563.642 1141.275,562.369 1146.101,560.365 1150.865,557.636 1155.549,554.194 
				1160.132,550.053 1164.598,545.229 1168.931,539.741 1173.11,533.611 1177.122,526.862 1180.948,519.522 1184.576,511.619 
				1187.989,503.184 1191.175,494.251 1194.121,484.856 1196.816,475.034 1199.25,464.827 1201.412,454.271 1203.292,443.41 
				1204.885,432.288 1206.185,420.947 1207.186,409.432 1207.883,397.79 1208.275,386.065 1208.36,374.304 			"/>
		</g>
	</g>
	<g id="J_Balken_1">
		<g>
			<polygon fill="#3B4D4F" points="118.656,794.144 410.325,1364.988 776.892,1364.988 484.477,793.68 			"/>
		</g>
	</g>
	<g id="J_Balken_1_-_Kappe_Unten">
		<g>
			<polygon fill="#3B4D4F" points="490.65,815.162 489.215,808.292 487.283,801.511 484.857,794.849 481.952,788.33 
				478.573,781.981 474.74,775.828 470.461,769.893 465.759,764.2 460.65,758.772 455.155,753.631 449.294,748.797 443.092,744.288 
				436.572,740.122 429.762,736.317 422.686,732.886 415.374,729.844 407.853,727.203 400.155,724.972 392.308,723.162 
				384.345,721.777 376.297,720.826 368.195,720.31 364.009,720.27 364.008,719.926 0,719.926 0,720.155 0.019,720.155 
				8.151,720.564 16.237,721.408 24.246,722.683 32.146,724.386 39.903,726.509 47.49,729.043 54.876,731.98 62.031,735.307 
				68.927,739.011 75.538,743.077 81.835,747.491 87.797,752.232 93.398,757.284 98.617,762.627 103.433,768.239 107.826,774.099 
				111.78,780.182 115.279,786.464 118.308,792.923 120.068,796.917 239.75,797.02 238.916,799.144 236.809,805.885 
				235.198,812.727 234.09,819.643 233.49,826.605 233.4,833.584 233.82,840.555 234.749,847.49 236.183,854.361 238.116,861.141 
				240.541,867.803 243.448,874.323 246.825,880.671 250.66,886.825 254.936,892.759 259.638,898.452 264.748,903.879 
				270.244,909.021 276.103,913.855 282.305,918.365 288.825,922.53 295.636,926.335 302.711,929.765 310.025,932.808 
				317.544,935.45 325.243,937.679 333.089,939.491 341.053,940.875 349.102,941.827 357.204,942.342 365.328,942.419 
				373.441,942.059 381.512,941.26 389.509,940.029 397.4,938.368 405.154,936.285 412.742,933.787 420.13,930.884 427.292,927.59 
				434.2,923.916 440.826,919.875 447.142,915.486 453.126,910.764 458.753,905.729 464.001,900.4 468.85,894.798 473.278,888.947 
				477.271,882.867 480.812,876.584 483.886,870.123 486.482,863.508 488.589,856.767 490.201,849.925 491.308,843.01 
				491.908,836.047 491.998,829.068 491.578,822.096 			"/>
		</g>
	</g>
	<g id="J_Kreuzung_Abrundung">
		<g>
			<polygon fill="#3B4D4F" points="694.602,989.705 693.897,991.488 690.324,999.461 686.55,1006.875 682.592,1013.702 
				678.465,1019.913 674.184,1025.484 669.768,1030.395 665.233,1034.624 660.597,1038.156 655.879,1040.975 651.096,1043.074 
				646.27,1044.44 641.417,1045.071 636.557,1044.961 631.709,1044.115 626.893,1042.533 622.128,1040.221 617.432,1037.191 
				612.824,1033.453 608.322,1029.022 603.944,1023.915 599.708,1018.153 595.627,1011.758 591.722,1004.756 588.005,997.174 
				584.78,989.705 509.727,989.705 509.727,1208.796 795.468,1208.796 795.468,989.705 			"/>
		</g>
	</g>
</g>
<g id="_x22_GAMP_x22__Teil_Für_JOGAMP_1_">
	<g id="_x22_G_x22__Kreis_Aussen">
		<g>
			<polygon fill="#3B4D4F" points="5386.77,858.186 5386.77,847.476 5197.411,847.476 5197.178,850.669 5194.925,867.211 
				5191.638,883.58 5187.33,899.709 5182.018,915.538 5175.722,931 5168.469,946.037 5160.285,960.587 5151.204,974.597 
				5141.261,988.007 5130.497,1000.767 5118.952,1012.827 5106.674,1024.136 5093.708,1034.653 5080.11,1044.335 5065.929,1053.144 
				5051.224,1061.044 5036.051,1068.005 5020.471,1074 5004.546,1079.005 4988.339,1083 4971.912,1085.968 4955.331,1087.901 
				4938.662,1088.787 4921.969,1088.625 4905.32,1087.415 4888.781,1085.162 4872.415,1081.875 4856.288,1077.565 
				4840.462,1072.252 4825.002,1065.956 4809.969,1058.702 4795.417,1050.516 4781.412,1041.434 4768.003,1031.49 
				4755.245,1020.724 4743.187,1009.177 4731.879,996.897 4721.365,983.929 4711.684,970.329 4702.876,956.146 4694.977,941.439 
				4688.017,926.264 4682.023,910.682 4677.018,894.754 4673.025,878.544 4670.056,862.115 4668.125,845.532 4667.239,828.859 
				4667.401,812.165 4668.611,795.514 4670.863,778.971 4674.15,762.603 4678.458,746.473 4683.77,730.646 4690.066,715.183 
				4697.321,700.147 4705.503,685.595 4714.584,671.586 4724.526,658.175 4735.292,645.416 4746.836,633.356 4759.115,622.046 
				4772.079,611.53 4785.68,601.849 4799.86,593.04 4814.565,585.139 4829.738,578.178 4845.318,572.182 4861.242,567.178 
				4877.451,563.184 4893.876,560.214 4910.458,558.283 4927.127,557.396 4943.819,557.558 4946.305,557.739 5303.721,557.739 
				5298.174,549.818 5280.294,527.419 5261.044,506.188 5240.497,486.208 5218.738,467.557 5195.85,450.309 5171.924,434.533 
				5147.056,420.289 5121.342,407.637 5094.884,396.623 5067.788,387.293 5040.159,379.683 5012.106,373.823 4983.741,369.736 
				4955.175,367.438 4926.522,366.939 4897.893,368.24 4869.403,371.336 4841.165,376.216 4813.287,382.858 4785.881,391.239 
				4759.055,401.325 4732.916,413.074 4707.568,426.442 4683.106,441.375 4659.632,457.815 4637.236,475.696 4616.005,494.95 
				4596.027,515.498 4577.378,537.259 4560.133,560.15 4544.358,584.077 4530.117,608.949 4517.464,634.666 4506.452,661.126 
				4497.124,688.226 4489.513,715.858 4483.654,743.913 4479.569,772.28 4477.27,800.849 4476.771,829.505 4478.073,858.137 
				4481.168,886.63 4486.047,914.873 4492.688,942.753 4501.069,970.161 4511.153,996.989 4522.901,1023.13 4536.269,1048.483 
				4551.201,1072.946 4567.638,1096.423 4585.518,1118.822 4604.768,1140.052 4625.314,1160.034 4647.073,1178.685 
				4669.96,1195.932 4693.887,1211.708 4718.755,1225.952 4744.471,1238.605 4770.928,1249.618 4798.025,1258.948 
				4825.655,1266.558 4853.706,1272.418 4882.071,1276.505 4910.637,1278.803 4939.291,1279.302 4967.918,1278.001 
				4996.41,1274.905 5024.649,1270.026 5052.526,1263.383 5079.931,1255.002 5106.758,1244.917 5132.896,1233.167 
				5158.246,1219.799 5182.706,1204.866 5206.181,1188.426 5228.577,1170.545 5249.806,1151.292 5269.786,1130.744 
				5288.433,1108.981 5305.68,1086.091 5321.455,1062.164 5335.696,1037.292 5348.346,1011.576 5359.36,985.115 5368.69,958.016 
				5376.298,930.383 5382.158,902.329 5386.245,873.961 5387.512,858.186 			"/>
		</g>
	</g>
	<g id="_x22_G_x22__Kreis_Horizontal_Abrundung">
		<g>
			<path fill="#3B4D4F" d="M5191.641,367.725h-263.627v186.1h25.165c0.008,1.157,0.02,2.313,0.051,3.465h431.065
				c0.039-1.454,0.064-2.911,0.064-4.373C5384.36,456.737,5299.956,377.595,5191.641,367.725z"/>
		</g>
	</g>
	<g id="_x22_G_x22__Blatt_Horizontal_Teil_2">
		<g>
			<path fill="#3B4D4F" d="M5206.451,631.857h-15.101v188.666h192.919c0.057-1.751,0.091-3.508,0.091-5.271
				C5384.36,723.503,5307.552,647.255,5206.451,631.857z"/>
		</g>
	</g>
	<g id="_x22_G_x22__Blatt_Horizontal_Teil_1">
		<g>
			<path fill="#3B4D4F" d="M5200.974,820.523V631.857h-192.02c-0.057,1.751-0.091,3.508-0.091,5.271
				c0,91.773,76.855,168.025,177.996,183.395H5200.974z"/>
		</g>
	</g>
	<g id="_x22_A_x22__Kreis_Aussen">
		<g>
			<path fill="#3B4D4F" d="M5657.348,1088.787l-16.691-0.162l-16.649-1.21l-16.54-2.253l-16.365-3.287l-16.127-4.31l-15.826-5.313
				l-15.459-6.297l-15.035-7.254l-14.55-8.186l-14.007-9.082l-13.408-9.944l-12.758-10.766l-12.058-11.547l-11.308-12.28
				l-10.515-12.968l-9.681-13.601l-8.809-14.183l-7.898-14.707l-6.961-15.175l-5.994-15.582l-5.004-15.928l-3.993-16.21l-2.97-16.43
				l-1.69-14.518h-12.126l-0.088,9.022l0.306,13.096l-0.037,12.203l0.236,11.465l-3.618,9.304l-7.641,9.475l-8.272,9.017
				l-8.875,8.52l-9.438,7.993l-9.968,7.433l-10.456,6.845l-10.904,6.227l-11.308,5.586l-11.668,4.924l-11.981,4.242l-12.248,3.542
				l-12.465,2.829l-12.636,2.105l-9.491,1.021l5.467,14.544l11.748,26.142l13.365,25.353l14.933,24.463l16.438,23.478l17.879,22.398
				l19.252,21.23l20.546,19.981l21.759,18.651l22.888,17.247l23.926,15.776l24.869,14.243l25.714,12.653l26.457,11.013l27.098,9.33
				l27.631,7.61l28.051,5.86l28.365,4.087l28.566,2.298l28.653,0.499l1.333-0.061h51.977v-3.923l0.08-0.009v-186.657h-51.502
				L5657.348,1088.787z M6105.456,858.26v-79.093l-2.124-19.556l-4.88-28.242l-6.643-27.88l-8.379-27.408l-10.084-26.829
				l-11.749-26.142l-13.366-25.352l-14.931-24.463l-16.438-23.478l-17.88-22.398l-19.251-21.231l-20.547-19.981l-21.76-18.651
				l-22.887-17.248l-23.926-15.776l-24.869-14.244l-25.713-12.652l-26.458-11.014l-27.099-9.33l-27.628-7.61l-28.052-5.86
				l-28.366-4.087l-28.564-2.297l-28.655-0.499l-28.627,1.301l-28.49,3.096l-28.24,4.879l-27.878,6.643l-27.405,8.381
				l-26.824,10.085l-26.14,11.75l-25.349,13.368l-24.461,14.934l-23.475,16.439l-22.396,17.881l-21.229,19.253l-19.979,20.548
				l-18.648,21.761l-17.247,22.891l-15.773,23.927l-14.243,24.872l-1.75,3.558l3.021,0.555l12.408,3.034l12.178,3.743l11.896,4.438
				l11.57,5.115l11.197,5.771l10.779,6.406l10.321,7.015l9.821,7.595l9.281,8.147l8.706,8.665l8.097,9.15l7.454,9.6l6.784,10.009
				l6.086,10.382l5.362,10.711l4.62,10.999l2.401,6.997l3.421-10.191l6.296-15.463l7.253-15.036l8.185-14.552l9.081-14.009
				l9.941-13.411l10.765-12.76l11.544-12.059l12.279-11.31l12.965-10.517l13.601-9.681l14.18-8.809l14.706-7.901l15.171-6.961
				l15.581-5.996l15.925-5.004l16.208-3.995l16.427-2.969l16.581-1.932l16.668-0.887l16.693,0.162l16.648,1.21l16.539,2.253
				l16.367,3.288l16.127,4.308l15.826,5.314l15.459,6.296l15.035,7.255l14.549,8.185l14.006,9.082l13.41,9.944l12.758,10.766
				l12.057,11.546l11.309,12.281l10.516,12.967l9.68,13.602l8.807,14.182l7.899,14.708l6.96,15.175l5.994,15.582l5.005,15.927
				l3.993,16.21l2.969,16.429l1.932,16.584l0.887,16.672l-0.059,6.047h0.034v370.417l7.656-5.361l22.396-17.881l21.229-19.254
				l19.979-20.548l18.649-21.763l17.247-22.89l15.774-23.928l14.24-24.871l12.651-25.717l11.013-26.461l9.331-27.099l7.608-27.633
				l5.859-28.055l4.087-28.367l1.262-15.701H6105.456z"/>
		</g>
	</g>
	<g id="_x22_A_x22__Kreis_Vertikal_Abrundung">
		<g>
			<path fill="#3B4D4F" d="M5920.582,822.729v25.165c-1.157,0.008-2.313,0.02-3.464,0.051v431.068
				c1.453,0.039,2.91,0.064,4.372,0.064c96.179,0,175.32-84.405,185.19-192.721V822.729H5920.582z"/>
		</g>
	</g>
	<g id="_x22_P_x22__Kreis_Aussen">
		<g>
			<polygon fill="#3B4D4F" points="7830.694,800.849 7828.396,772.28 7824.311,743.913 7818.45,715.858 7810.841,688.226 
				7801.512,661.126 7790.5,634.666 7777.848,608.949 7763.607,584.077 7747.833,560.15 7730.586,537.259 7711.937,515.498 
				7691.958,494.95 7670.728,475.696 7648.333,457.815 7624.858,441.375 7600.397,426.442 7575.047,413.074 7548.909,401.325 
				7522.083,391.239 7494.678,382.858 7466.8,376.216 7438.561,371.336 7410.071,368.24 7381.442,366.939 7352.79,367.438 
				7324.223,369.736 7295.859,373.823 7267.806,379.683 7240.176,387.293 7213.08,396.623 7186.622,407.637 7160.907,420.289 
				7136.04,434.533 7112.114,450.309 7089.227,467.557 7067.465,486.208 7046.92,506.188 7027.67,527.419 7009.79,549.818 
				6993.352,573.295 6978.42,597.758 6965.053,623.11 6953.305,649.252 6943.22,676.081 6934.84,703.488 6928.198,731.369 
				6923.32,759.611 6920.224,788.104 6918.924,816.736 6919.12,827.973 6919.12,1021.312 6964.406,1021.312 6972.268,1037.292 
				6986.509,1062.164 7002.285,1086.091 7019.53,1108.981 7038.179,1130.744 7058.159,1151.292 7079.387,1170.545 
				7101.784,1188.426 7109.439,1193.788 7109.439,823.371 7109.472,823.371 7109.414,817.324 7110.3,800.652 7112.232,784.068 
				7115.2,767.639 7119.194,751.429 7124.199,735.502 7130.192,719.92 7137.153,704.745 7145.053,690.037 7153.859,675.855 
				7163.54,662.253 7174.054,649.286 7185.363,637.005 7197.42,625.459 7210.178,614.693 7223.586,604.749 7237.594,595.667 
				7252.144,587.482 7267.177,580.227 7282.638,573.931 7298.463,568.617 7314.59,564.309 7330.957,561.021 7347.497,558.768 
				7364.145,557.558 7380.836,557.396 7397.506,558.283 7414.087,560.214 7430.514,563.184 7446.721,567.178 7462.647,572.182 
				7478.227,578.178 7493.399,585.139 7508.104,593.04 7522.284,601.849 7535.883,611.53 7548.849,622.046 7561.127,633.356 
				7572.672,645.416 7583.438,658.175 7593.38,671.586 7602.461,685.595 7610.644,700.147 7617.898,715.183 7624.193,730.646 
				7629.506,746.473 7633.815,762.603 7637.1,778.971 7639.353,795.514 7640.564,812.165 7640.725,828.859 7639.839,845.532 
				7637.908,862.115 7634.94,878.544 7630.946,894.754 7625.942,910.682 7619.947,926.264 7612.987,941.439 7605.086,956.146 
				7596.281,970.329 7586.6,983.929 7576.085,996.897 7564.777,1009.177 7552.719,1020.724 7539.961,1031.49 7526.553,1041.434 
				7512.547,1050.516 7497.996,1058.702 7482.961,1065.956 7467.501,1072.252 7451.677,1077.565 7435.548,1081.875 
				7419.183,1085.162 7402.643,1087.415 7385.995,1088.625 7369.303,1088.787 7366.786,1088.653 7315.285,1088.653 
				7315.285,1275.31 7315.363,1275.319 7315.363,1279.242 7367.34,1279.242 7368.673,1279.302 7397.327,1278.803 7425.893,1276.505 
				7454.257,1272.418 7482.31,1266.558 7509.94,1258.948 7537.036,1249.618 7563.494,1238.605 7589.208,1225.952 7614.077,1211.708 
				7638.001,1195.932 7660.891,1178.685 7682.651,1160.034 7703.196,1140.052 7722.446,1118.822 7740.327,1096.423 
				7756.764,1072.946 7771.696,1048.483 7785.063,1023.13 7796.812,996.989 7806.895,970.161 7815.274,942.753 7821.917,914.873 
				7826.796,886.63 7829.891,858.137 7831.192,829.505 			"/>
		</g>
	</g>
	<g id="_x22_P_x22__Kreis_Vertikal_Abrundung">
		<g>
			<path fill="#3B4D4F" d="M6922.316,995.059v25.166c-1.157,0.008-2.313,0.02-3.464,0.051v431.068
				c1.453,0.039,2.91,0.064,4.372,0.064c96.175,0,175.315-84.4,185.189-192.711V995.059H6922.316z"/>
		</g>
	</g>
	<g id="_x22_M_x22__Mittelbalken_Vertikal_Abrundung">
		<g>
			<path fill="#3B4D4F" d="M6950.546,498.983v-30.566H6562.74v13.365h-101.991v-12.179h-393.736v35.041h-106.736v453.952h145.873
				V707.937l-0.004-1.513l-0.004-9.607l-0.035-9.886l0.822-9.635l1.774-9.593l2.373-9.462l2.964-9.294l3.539-9.09l4.105-8.85
				l4.652-8.574l5.182-8.266l5.689-7.924l6.178-7.551l6.639-7.148l7.075-6.718l7.481-6.26l7.861-5.778l8.208-5.272l8.523-4.748
				l8.805-4.203l9.05-3.642l9.264-3.067l9.436-2.479l9.573-1.881l9.673-1.277l9.732-0.667l9.757-0.055l9.74,0.559l9.687,1.168
				l9.594,1.774l9.463,2.373l9.296,2.962l9.091,3.541l8.853,4.104l8.575,4.651l8.268,5.181l7.925,5.69l7.553,6.176l7.149,6.638
				l6.718,7.073l6.261,7.481l5.778,7.859l5.274,8.207l4.748,8.521l4.203,8.804l3.643,9.049l3.067,9.261l2.479,9.434l1.882,9.572
				l1.08,9.572l-0.124,9.781l0.002,3.426h0.063V847.15c-0.101,0.003-0.202,0.002-0.303,0.005v431.068
				c1.454,0.039,2.911,0.064,4.373,0.064c96.174,0,175.315-84.4,185.189-192.711V717.299l-0.074-0.658l0.059-9.926l-0.007-9.998
				l0.028-9.983l0.754-10.025l1.818-9.832l2.433-9.699l3.037-9.526l3.628-9.317l4.209-9.071l4.768-8.789l5.311-8.472l5.834-8.122
				l6.331-7.74l6.804-7.327l7.251-6.885l7.67-6.417l8.059-5.922l8.413-5.405l8.735-4.866l9.024-4.307l9.277-3.733l9.493-3.143
				l9.673-2.541l9.813-1.928l9.913-1.31l9.978-0.684l10-0.056l9.985,0.572l9.928,1.197l9.833,1.818l9.7,2.433l9.528,3.037
				l9.317,3.628l9.072,4.207l8.791,4.768l8.474,5.31l8.123,5.833l7.741,6.33l7.327,6.804l6.888,7.25l6.418,7.668l5.923,8.057
				l5.405,8.412l4.867,8.735l4.308,9.022l3.733,9.276l3.145,9.492l2.541,9.671l1.929,9.811l-0.024,9.715l-0.057,10.025l0.055,3.668
				h0.146v140.546h139.153V498.983H6950.546z"/>
		</g>
	</g>
	<g id="_x22_M_x22__Bogen_Kreis_Aussen_1">
		<g>
			<polygon fill="#3B4D4F" points="6583.786,486.208 6562.026,467.557 6539.139,450.309 6515.212,434.533 6490.344,420.289 
				6464.631,407.637 6438.173,396.623 6411.077,387.293 6383.446,379.683 6355.393,373.823 6327.029,369.736 6298.463,367.438 
				6269.809,366.939 6241.181,368.24 6212.692,371.336 6184.452,376.216 6156.575,382.858 6129.168,391.239 6102.344,401.325 
				6076.205,413.074 6050.854,426.442 6026.395,441.375 6002.919,457.815 5980.524,475.696 5959.293,494.95 5939.316,515.498 
				5931.475,524.647 6621.069,524.647 6604.333,506.188 			"/>
		</g>
	</g>
	<g id="_x22_M_x22__Bogen_Kreis_Aussen_2">
		<g>
			<polygon fill="#3B4D4F" points="7066.073,486.208 7044.313,467.557 7021.425,450.309 6997.5,434.533 6972.631,420.289 
				6946.917,407.637 6920.459,396.623 6893.363,387.293 6865.733,379.683 6837.682,373.823 6809.317,369.736 6780.75,367.438 
				6752.097,366.939 6723.469,368.24 6694.979,371.336 6666.739,376.216 6638.861,382.858 6611.457,391.239 6584.631,401.325 
				6558.493,413.074 6533.142,426.442 6508.682,441.375 6485.207,457.815 6462.811,475.696 6441.581,494.95 6421.603,515.498 
				6413.762,524.647 7103.356,524.647 7086.62,506.188 			"/>
		</g>
	</g>
	<g id="Dreieck_JOGAMP_Untertitel">
		<g>
			<polygon fill-rule="evenodd" clip-rule="evenodd" fill="#3B4D4F" points="4433.213,1327.957 4433.278,1381.228 
				4479.379,1354.538 			"/>
		</g>
	</g>
	<g id="Java_x2122__Open_graphics_x2C__audio_x2C__media_and_proces_1_">
		<g id="Java_x2122__Open_graphics_x2C__audio_x2C__media_and_proces">
			<path fill="#3B4D4F" d="M4511.89,1341.34c0-2.652,0.951-4.929,2.854-6.831s4.179-2.854,6.83-2.854v23.115
				c0,6.38-2.297,11.808-6.888,16.284c-4.593,4.478-10.079,6.716-16.458,6.716h-13.604c0-2.536,0.894-4.698,2.681-6.485
				c1.787-1.786,3.948-2.68,6.484-2.68h4.438c3.805,0,7.033-1.355,9.685-4.064s3.978-5.966,3.978-9.771V1341.34z"/>
			<path fill="#3B4D4F" d="M4572.819,1354.771v23h-23.403c-6.38,0-11.865-2.238-16.457-6.716c-4.593-4.477-6.889-9.904-6.889-16.284
				c0-6.379,2.296-11.826,6.889-16.342c4.592-4.516,10.077-6.773,16.457-6.773c6.379,0,11.874,2.258,16.486,6.773
				C4570.513,1342.945,4572.819,1348.392,4572.819,1354.771z M4563.019,1368.606v-13.835c0-3.805-1.319-7.08-3.957-9.828
				c-2.639-2.747-5.863-4.122-9.676-4.122s-7.037,1.375-9.676,4.122c-2.638,2.748-3.956,6.023-3.956,9.828s1.318,7.062,3.956,9.771
				c2.639,2.709,5.863,4.064,9.676,4.064H4563.019z"/>
			<path fill="#3B4D4F" d="M4577.315,1331.656c2.651,0,4.929,0.951,6.831,2.854s2.854,4.179,2.854,6.831v27.266h13.604
				c3.805,0,7.032-1.355,9.684-4.064c2.652-2.709,3.978-5.966,3.978-9.771v-13.431c0-2.652,0.951-4.929,2.854-6.831
				s4.18-2.854,6.831-2.854v23.115c0,6.38-2.287,11.808-6.859,16.284c-4.574,4.478-10.069,6.716-16.486,6.716h-23.288V1331.656z"/>
			<path fill="#3B4D4F" d="M4675.193,1354.771v23h-23.403c-6.38,0-11.865-2.238-16.457-6.716c-4.593-4.477-6.889-9.904-6.889-16.284
				c0-6.379,2.296-11.826,6.889-16.342c4.592-4.516,10.077-6.773,16.457-6.773c6.379,0,11.875,2.258,16.486,6.773
				S4675.193,1348.392,4675.193,1354.771z M4665.393,1368.606v-13.835c0-3.805-1.319-7.08-3.957-9.828
				c-2.639-2.747-5.863-4.122-9.676-4.122s-7.037,1.375-9.676,4.122c-2.638,2.748-3.956,6.023-3.956,9.828s1.318,7.062,3.956,9.771
				c2.639,2.709,5.863,4.064,9.676,4.064H4665.393z"/>
			<path fill="#3B4D4F" d="M4694.504,1338.917v2.594h-5.016v13.086h-3.112v-13.086h-4.958v-2.594H4694.504z M4711.453,1354.596
				l-0.576-9.224c-0.058-1.21-0.058-2.709-0.115-4.381h-0.173c-0.403,1.384-0.923,3.229-1.326,4.67l-2.824,8.704h-3.229
				l-2.825-8.936c-0.288-1.152-0.749-3.055-1.095-4.438h-0.173c0,1.441-0.058,2.94-0.116,4.381l-0.576,9.224h-2.997l1.152-15.68
				h4.67l2.709,7.667c0.403,1.211,0.635,2.363,1.038,3.978h0.058c0.403-1.383,0.749-2.767,1.095-3.862l2.71-7.782h4.496l1.211,15.68
				H4711.453z"/>
			<path fill="#3B4D4F" d="M4764.193,1331.656c6.379,0,11.864,2.258,16.457,6.773c4.592,4.516,6.889,9.963,6.889,16.342
				c0,6.38-2.297,11.808-6.889,16.284c-4.593,4.478-10.078,6.716-16.457,6.716c-6.38,0-11.855-2.238-16.429-6.716
				c-4.573-4.477-6.859-9.904-6.859-16.284c0-6.379,2.286-11.826,6.859-16.342S4757.813,1331.656,4764.193,1331.656z
				 M4764.193,1340.821c-3.805,0-7.023,1.375-9.655,4.122c-2.633,2.748-3.948,6.023-3.948,9.828s1.315,7.062,3.948,9.771
				c2.632,2.709,5.851,4.064,9.655,4.064s7.032-1.355,9.684-4.064c2.652-2.709,3.978-5.966,3.978-9.771s-1.325-7.08-3.978-9.828
				C4771.225,1342.196,4767.998,1340.821,4764.193,1340.821z"/>
			<path fill="#3B4D4F" d="M4798.116,1386.447c-1.902,1.902-4.18,2.853-6.831,2.853v-34.528c0-6.379,2.296-11.826,6.889-16.342
				c4.592-4.516,10.077-6.773,16.457-6.773c6.379,0,11.874,2.258,16.486,6.773c4.611,4.516,6.917,9.963,6.917,16.342
				c0,6.38-2.297,11.808-6.889,16.284c-4.593,4.478-10.098,6.716-16.515,6.716h-13.661v1.845
				C4800.969,1382.267,4800.018,1384.544,4798.116,1386.447z M4814.63,1368.606c3.805,0,7.022-1.355,9.655-4.064
				c2.632-2.709,3.948-5.966,3.948-9.771s-1.316-7.08-3.948-9.828c-2.633-2.747-5.851-4.122-9.655-4.122s-7.023,1.375-9.655,4.122
				c-2.633,2.748-3.948,6.023-3.948,9.828v13.835H4814.63z"/>
			<path fill="#3B4D4F" d="M4865.068,1377.771c-6.38,0-11.855-2.238-16.429-6.716c-4.573-4.477-6.859-9.904-6.859-16.284
				c0-6.379,2.286-11.826,6.859-16.342s10.049-6.773,16.429-6.773h13.661c0,2.536-0.903,4.698-2.709,6.485
				c-1.807,1.786-3.978,2.68-6.514,2.68h-4.438c-3.767,0-6.975,1.384-9.627,4.15c-2.651,2.768-3.977,6.034-3.977,9.8
				c0,3.767,1.325,7.014,3.977,9.742c2.652,2.729,5.86,4.093,9.627,4.093h4.438c2.536,0,4.707,0.894,6.514,2.68
				c1.806,1.787,2.709,3.949,2.709,6.485H4865.068z M4861.839,1350.102h16.89c0,2.553-0.903,4.719-2.709,6.497
				c-1.807,1.779-3.978,2.668-6.514,2.668h-7.667c-1.268,0-2.344-0.435-3.228-1.305c-0.885-0.87-1.326-1.943-1.326-3.22
				c0-1.314,0.433-2.416,1.297-3.306C4859.448,1350.546,4860.533,1350.102,4861.839,1350.102z"/>
			<path fill="#3B4D4F" d="M4918.676,1354.771c0-3.766-1.325-7.032-3.978-9.8c-2.651-2.767-5.86-4.15-9.626-4.15
				c-3.805,0-7.032,1.375-9.685,4.122c-2.651,2.748-3.977,6.023-3.977,9.828v13.315c0,2.652-0.951,4.929-2.854,6.831
				s-4.18,2.854-6.831,2.854v-23c0-6.379,2.286-11.826,6.859-16.342s10.068-6.773,16.486-6.773c6.379,0,11.854,2.258,16.429,6.773
				c4.572,4.516,6.859,9.963,6.859,16.342v23c-2.651,0-4.929-0.951-6.831-2.854s-2.854-4.179-2.854-6.831V1354.771z"/>
			<path fill="#3B4D4F" d="M5005.199,1378.75c0,6.418-2.297,11.855-6.889,16.313c-4.593,4.458-10.098,6.687-16.515,6.687h-13.604
				c0-2.536,0.894-4.697,2.68-6.484c1.787-1.787,3.949-2.681,6.485-2.681h4.438c3.805,0,7.041-1.354,9.713-4.063
				c2.671-2.71,4.006-5.967,4.006-9.771v-0.979h-13.776c-6.38,0-11.865-2.238-16.457-6.716c-4.593-4.477-6.889-9.904-6.889-16.284
				c0-6.379,2.299-11.826,6.896-16.342s10.091-6.773,16.478-6.773s11.89,2.258,16.506,6.773c4.617,4.516,6.927,9.963,6.927,16.342
				V1378.75z M4995.341,1368.606v-13.835c0-3.805-1.319-7.08-3.957-9.828c-2.639-2.747-5.863-4.122-9.676-4.122
				s-7.037,1.375-9.676,4.122c-2.638,2.748-3.956,6.023-3.956,9.828s1.318,7.062,3.956,9.771c2.639,2.709,5.863,4.064,9.676,4.064
				H4995.341z"/>
			<path fill="#3B4D4F" d="M5020.243,1368.086c0,2.652-0.951,4.929-2.854,6.831s-4.179,2.854-6.831,2.854v-23.115
				c0-6.379,2.296-11.807,6.889-16.284c4.592-4.477,10.078-6.716,16.457-6.716h13.604c0,2.536-0.894,4.698-2.681,6.485
				c-1.787,1.786-3.948,2.68-6.485,2.68h-4.438c-3.804,0-7.032,1.355-9.684,4.064s-3.978,5.966-3.978,9.771V1368.086z"/>
			<path fill="#3B4D4F" d="M5096.159,1354.771v23h-23.403c-6.38,0-11.865-2.238-16.457-6.716c-4.593-4.477-6.889-9.904-6.889-16.284
				c0-6.379,2.296-11.826,6.889-16.342c4.592-4.516,10.077-6.773,16.457-6.773c6.379,0,11.874,2.258,16.486,6.773
				C5093.853,1342.945,5096.159,1348.392,5096.159,1354.771z M5086.359,1368.606v-13.835c0-3.805-1.319-7.08-3.957-9.828
				c-2.639-2.747-5.863-4.122-9.676-4.122s-7.037,1.375-9.676,4.122c-2.638,2.748-3.956,6.023-3.956,9.828s1.318,7.062,3.956,9.771
				c2.639,2.709,5.863,4.064,9.676,4.064H5086.359z"/>
			<path fill="#3B4D4F" d="M5107.485,1386.447c-1.902,1.902-4.18,2.853-6.831,2.853v-34.528c0-6.379,2.296-11.826,6.889-16.342
				c4.592-4.516,10.077-6.773,16.457-6.773c6.379,0,11.874,2.258,16.486,6.773c4.611,4.516,6.917,9.963,6.917,16.342
				c0,6.38-2.297,11.808-6.889,16.284c-4.593,4.478-10.098,6.716-16.515,6.716h-13.661v1.845
				C5110.338,1382.267,5109.387,1384.544,5107.485,1386.447z M5124,1368.606c3.805,0,7.022-1.355,9.655-4.064
				c2.632-2.709,3.948-5.966,3.948-9.771s-1.316-7.08-3.948-9.828c-2.633-2.747-5.851-4.122-9.655-4.122s-7.023,1.375-9.655,4.122
				c-2.633,2.748-3.948,6.023-3.948,9.828v13.835H5124z"/>
			<path fill="#3B4D4F" d="M5174.496,1331.656c6.379,0,11.854,2.258,16.429,6.773c4.572,4.516,6.859,9.963,6.859,16.342v23
				c-2.651,0-4.929-0.951-6.831-2.854s-2.854-4.179-2.854-6.831v-13.315c0-3.766-1.325-7.032-3.978-9.8
				c-2.651-2.767-5.86-4.15-9.626-4.15c-3.805,0-7.032,1.375-9.685,4.122c-2.651,2.748-3.977,6.023-3.977,9.828v13.315
				c0,2.652-0.951,4.929-2.854,6.831s-4.18,2.854-6.831,2.854v-57.586c2.651,0,4.929,0.951,6.831,2.853
				c1.902,1.902,2.854,4.18,2.854,6.831v5.995C5163.87,1333.059,5168.423,1331.656,5174.496,1331.656z"/>
			<path fill="#3B4D4F" d="M5211.963,1377.771c-2.652,0-4.929-0.951-6.831-2.854s-2.854-4.179-2.854-6.831v-36.431
				c2.651,0,4.929,0.951,6.831,2.854s2.854,4.179,2.854,6.831V1377.771z"/>
			<path fill="#3B4D4F" d="M5240.035,1377.771c-6.38,0-11.855-2.238-16.429-6.716c-4.573-4.477-6.859-9.904-6.859-16.284
				c0-6.379,2.286-11.826,6.859-16.342s10.049-6.773,16.429-6.773h13.604c0,2.536-0.894,4.698-2.68,6.485
				c-1.787,1.786-3.949,2.68-6.485,2.68h-4.438c-3.805,0-7.043,1.375-9.713,4.122c-2.672,2.748-4.006,6.023-4.006,9.828
				s1.334,7.062,4.006,9.771c2.67,2.709,5.908,4.064,9.713,4.064h4.438c2.536,0,4.698,0.894,6.485,2.68
				c1.786,1.787,2.68,3.949,2.68,6.485H5240.035z"/>
			<path fill="#3B4D4F" d="M5277.502,1349.699c0-4.995,1.796-9.252,5.39-12.769c3.593-3.517,7.906-5.274,12.941-5.274h13.258
				c0,2.575-0.903,4.747-2.709,6.514c-1.807,1.769-3.997,2.651-6.571,2.651h-2.018c-2.96,0-5.486,1.066-7.58,3.199
				c-2.096,2.133-3.142,4.698-3.142,7.696v8.012c0,4.996-1.787,9.252-5.361,12.769c-3.573,3.517-7.878,5.274-12.912,5.274h-13.258
				c0-2.536,0.894-4.698,2.681-6.485c1.787-1.786,3.948-2.68,6.484-2.68h2.075c2.998,0,5.534-1.066,7.609-3.199
				s3.112-4.698,3.112-7.696V1349.699z"/>
			<path fill="#3B4D4F" d="M5321.197,1385.726c-2.652,0-4.929-0.951-6.831-2.854s-2.854-4.18-2.854-6.831v-11.298
				c2.651,0,4.929,0.951,6.831,2.854s2.854,4.179,2.854,6.83V1385.726z"/>
			<path fill="#3B4D4F" d="M5398.264,1354.771v23h-23.403c-6.38,0-11.865-2.238-16.457-6.716c-4.593-4.477-6.889-9.904-6.889-16.284
				c0-6.379,2.296-11.826,6.889-16.342c4.592-4.516,10.077-6.773,16.457-6.773c6.379,0,11.874,2.258,16.486,6.773
				C5395.958,1342.945,5398.264,1348.392,5398.264,1354.771z M5388.464,1368.606v-13.835c0-3.805-1.319-7.08-3.957-9.828
				c-2.639-2.747-5.863-4.122-9.676-4.122s-7.037,1.375-9.676,4.122c-2.638,2.748-3.956,6.023-3.956,9.828s1.318,7.062,3.956,9.771
				c2.639,2.709,5.863,4.064,9.676,4.064H5388.464z"/>
			<path fill="#3B4D4F" d="M5439.709,1341.34c0-2.652,0.951-4.929,2.854-6.831s4.18-2.854,6.831-2.854v23
				c0,6.38-2.287,11.827-6.859,16.342c-4.574,4.517-10.05,6.773-16.429,6.773c-6.418,0-11.913-2.257-16.486-6.773
				c-4.573-4.515-6.859-9.962-6.859-16.342v-23c2.651,0,4.929,0.951,6.831,2.854s2.854,4.179,2.854,6.831v13.315
				c0,3.805,1.325,7.081,3.977,9.828c2.652,2.748,5.88,4.122,9.685,4.122c3.766,0,6.975-1.384,9.626-4.15
				c2.652-2.768,3.978-6.033,3.978-9.8V1341.34z"/>
			<path fill="#3B4D4F" d="M5460.778,1338.429c4.592-4.516,10.077-6.773,16.457-6.773c6.379,0,11.875,2.258,16.486,6.773
				s6.917,9.963,6.917,16.342c0,6.38-2.297,11.808-6.889,16.284c-4.593,4.478-10.098,6.716-16.515,6.716h-23.346v-23
				C5453.889,1348.392,5456.185,1342.945,5460.778,1338.429z M5477.235,1368.606c3.805,0,7.022-1.355,9.655-4.064
				c2.632-2.709,3.948-5.966,3.948-9.771s-1.316-7.08-3.948-9.828c-2.633-2.747-5.851-4.122-9.655-4.122s-7.023,1.375-9.655,4.122
				c-2.633,2.748-3.948,6.023-3.948,9.828v13.835H5477.235z"/>
			<path fill="#3B4D4F" d="M5514.069,1377.771c-2.652,0-4.929-0.951-6.831-2.854s-2.854-4.179-2.854-6.831v-36.431
				c2.651,0,4.929,0.951,6.831,2.854s2.854,4.179,2.854,6.831V1377.771z"/>
			<path fill="#3B4D4F" d="M5542.141,1331.656c6.379,0,11.864,2.258,16.457,6.773c4.592,4.516,6.889,9.963,6.889,16.342
				c0,6.38-2.297,11.808-6.889,16.284c-4.593,4.478-10.078,6.716-16.457,6.716c-6.38,0-11.855-2.238-16.429-6.716
				c-4.573-4.477-6.859-9.904-6.859-16.284c0-6.379,2.286-11.826,6.859-16.342S5535.761,1331.656,5542.141,1331.656z
				 M5542.141,1340.821c-3.805,0-7.023,1.375-9.655,4.122c-2.633,2.748-3.948,6.023-3.948,9.828s1.315,7.062,3.948,9.771
				c2.632,2.709,5.851,4.064,9.655,4.064s7.032-1.355,9.684-4.064c2.652-2.709,3.978-5.966,3.978-9.771s-1.325-7.08-3.978-9.828
				C5549.173,1342.196,5545.946,1340.821,5542.141,1340.821z"/>
			<path fill="#3B4D4F" d="M5578.917,1385.726c-2.652,0-4.929-0.951-6.831-2.854s-2.854-4.18-2.854-6.831v-11.298
				c2.651,0,4.929,0.951,6.831,2.854s2.854,4.179,2.854,6.83V1385.726z"/>
			<path fill="#3B4D4F" d="M5655.871,1354.771v23c-2.651,0-4.929-0.951-6.831-2.854s-2.854-4.179-2.854-6.831v-13.315
				c0-3.805-1.316-7.08-3.948-9.828c-2.633-2.747-5.851-4.122-9.655-4.122s-7.032,1.375-9.685,4.122
				c-2.651,2.748-3.977,6.023-3.977,9.828v13.315c0,2.69-0.942,4.978-2.825,6.86s-4.17,2.824-6.859,2.824v-23
				c0-6.379,2.296-11.826,6.889-16.342c4.592-4.516,10.077-6.773,16.457-6.773c3.611,0,7.032,0.798,10.261,2.393
				c3.228,1.595,5.975,3.814,8.243,6.657c2.19-2.805,4.918-5.015,8.185-6.629s6.688-2.421,10.261-2.421
				c6.379,0,11.854,2.258,16.429,6.773c4.572,4.516,6.859,9.963,6.859,16.342v23c-2.651,0-4.929-0.951-6.831-2.854
				c-1.901-1.902-2.853-4.179-2.853-6.831v-13.315c0-3.805-1.317-7.08-3.949-9.828c-2.633-2.747-5.851-4.122-9.655-4.122
				s-7.032,1.375-9.684,4.122C5657.196,1347.691,5655.871,1350.966,5655.871,1354.771z"/>
			<path fill="#3B4D4F" d="M5720.604,1377.771c-6.38,0-11.855-2.238-16.429-6.716c-4.573-4.477-6.859-9.904-6.859-16.284
				c0-6.379,2.286-11.826,6.859-16.342s10.049-6.773,16.429-6.773h13.661c0,2.536-0.903,4.698-2.709,6.485
				c-1.807,1.786-3.978,2.68-6.514,2.68h-4.438c-3.767,0-6.975,1.384-9.627,4.15c-2.651,2.768-3.977,6.034-3.977,9.8
				c0,3.767,1.325,7.014,3.977,9.742c2.652,2.729,5.86,4.093,9.627,4.093h4.438c2.536,0,4.707,0.894,6.514,2.68
				c1.806,1.787,2.709,3.949,2.709,6.485H5720.604z M5717.375,1350.102h16.89c0,2.553-0.903,4.719-2.709,6.497
				c-1.807,1.779-3.978,2.668-6.514,2.668h-7.667c-1.268,0-2.344-0.435-3.228-1.305c-0.885-0.87-1.326-1.943-1.326-3.22
				c0-1.314,0.433-2.416,1.297-3.306C5714.984,1350.546,5716.069,1350.102,5717.375,1350.102z"/>
			<path fill="#3B4D4F" d="M5744.151,1338.429c4.592-4.516,10.077-6.773,16.457-6.773c6.379,0,11.875,2.258,16.486,6.773
				s6.917,9.963,6.917,16.342c0,6.38-2.297,11.808-6.889,16.284c-4.593,4.478-10.098,6.716-16.515,6.716h-23.346v-23
				C5737.262,1348.392,5739.558,1342.945,5744.151,1338.429z M5760.608,1368.606c3.805,0,7.022-1.355,9.655-4.064
				c2.632-2.709,3.948-5.966,3.948-9.771s-1.316-7.08-3.948-9.828c-2.633-2.747-5.851-4.122-9.655-4.122s-7.023,1.375-9.655,4.122
				c-2.633,2.748-3.948,6.023-3.948,9.828v13.835H5760.608z"/>
			<path fill="#3B4D4F" d="M5797.442,1377.771c-2.652,0-4.929-0.951-6.831-2.854s-2.854-4.179-2.854-6.831v-36.431
				c2.651,0,4.929,0.951,6.831,2.854s2.854,4.179,2.854,6.831V1377.771z"/>
			<path fill="#3B4D4F" d="M5848.974,1354.771v23h-23.403c-6.38,0-11.865-2.238-16.457-6.716c-4.593-4.477-6.889-9.904-6.889-16.284
				c0-6.379,2.296-11.826,6.889-16.342c4.592-4.516,10.077-6.773,16.457-6.773c6.379,0,11.875,2.258,16.486,6.773
				S5848.974,1348.392,5848.974,1354.771z M5839.174,1368.606v-13.835c0-3.805-1.319-7.08-3.957-9.828
				c-2.639-2.747-5.863-4.122-9.676-4.122s-7.037,1.375-9.676,4.122c-2.638,2.748-3.956,6.023-3.956,9.828s1.318,7.062,3.956,9.771
				c2.639,2.709,5.863,4.064,9.676,4.064H5839.174z"/>
			<path fill="#3B4D4F" d="M5925.754,1354.771v23h-23.403c-6.38,0-11.865-2.238-16.457-6.716c-4.593-4.477-6.889-9.904-6.889-16.284
				c0-6.379,2.296-11.826,6.889-16.342c4.592-4.516,10.077-6.773,16.457-6.773c6.379,0,11.874,2.258,16.486,6.773
				C5923.449,1342.945,5925.754,1348.392,5925.754,1354.771z M5915.955,1368.606v-13.835c0-3.805-1.319-7.08-3.957-9.828
				c-2.639-2.747-5.863-4.122-9.676-4.122s-7.037,1.375-9.676,4.122c-2.638,2.748-3.956,6.023-3.956,9.828s1.318,7.062,3.956,9.771
				c2.639,2.709,5.863,4.064,9.676,4.064H5915.955z"/>
			<path fill="#3B4D4F" d="M5967.2,1354.771c0-3.766-1.325-7.032-3.978-9.8c-2.651-2.767-5.86-4.15-9.626-4.15
				c-3.805,0-7.032,1.375-9.685,4.122c-2.651,2.748-3.977,6.023-3.977,9.828v13.315c0,2.652-0.951,4.929-2.854,6.831
				s-4.18,2.854-6.831,2.854v-23c0-6.379,2.286-11.826,6.859-16.342s10.068-6.773,16.486-6.773c6.379,0,11.854,2.258,16.429,6.773
				c4.572,4.516,6.859,9.963,6.859,16.342v23c-2.651,0-4.929-0.951-6.831-2.854s-2.854-4.179-2.854-6.831V1354.771z"/>
			<path fill="#3B4D4F" d="M5988.268,1338.429c4.592-4.516,10.077-6.773,16.457-6.773c6.379,0,11.875,2.258,16.486,6.773
				s6.917,9.963,6.917,16.342c0,6.38-2.297,11.808-6.889,16.284c-4.593,4.478-10.098,6.716-16.515,6.716h-23.346v-23
				C5981.379,1348.392,5983.675,1342.945,5988.268,1338.429z M6004.725,1368.606c3.805,0,7.022-1.355,9.655-4.064
				c2.632-2.709,3.948-5.966,3.948-9.771s-1.316-7.08-3.948-9.828c-2.633-2.747-5.851-4.122-9.655-4.122s-7.023,1.375-9.655,4.122
				c-2.633,2.748-3.948,6.023-3.948,9.828v13.835H6004.725z"/>
			<path fill="#3B4D4F" d="M6064.242,1386.447c-1.902,1.902-4.18,2.853-6.831,2.853v-34.528c0-6.379,2.296-11.826,6.889-16.342
				c4.592-4.516,10.077-6.773,16.457-6.773c6.379,0,11.875,2.258,16.486,6.773s6.917,9.963,6.917,16.342
				c0,6.38-2.297,11.808-6.889,16.284c-4.593,4.478-10.098,6.716-16.515,6.716h-13.661v1.845
				C6067.095,1382.267,6066.144,1384.544,6064.242,1386.447z M6080.756,1368.606c3.805,0,7.022-1.355,9.655-4.064
				c2.632-2.709,3.948-5.966,3.948-9.771s-1.316-7.08-3.948-9.828c-2.633-2.747-5.851-4.122-9.655-4.122s-7.023,1.375-9.655,4.122
				c-2.633,2.748-3.948,6.023-3.948,9.828v13.835H6080.756z"/>
			<path fill="#3B4D4F" d="M6118.512,1368.086c0,2.652-0.951,4.929-2.854,6.831s-4.179,2.854-6.831,2.854v-23.115
				c0-6.379,2.296-11.807,6.889-16.284c4.592-4.477,10.078-6.716,16.457-6.716h13.604c0,2.536-0.894,4.698-2.681,6.485
				c-1.787,1.786-3.948,2.68-6.485,2.68h-4.438c-3.804,0-7.032,1.355-9.684,4.064s-3.978,5.966-3.978,9.771V1368.086z"/>
			<path fill="#3B4D4F" d="M6170.967,1331.656c6.379,0,11.864,2.258,16.457,6.773c4.592,4.516,6.889,9.963,6.889,16.342
				c0,6.38-2.297,11.808-6.889,16.284c-4.593,4.478-10.078,6.716-16.457,6.716c-6.38,0-11.855-2.238-16.429-6.716
				c-4.573-4.477-6.859-9.904-6.859-16.284c0-6.379,2.286-11.826,6.859-16.342S6164.587,1331.656,6170.967,1331.656z
				 M6170.967,1340.821c-3.805,0-7.023,1.375-9.655,4.122c-2.633,2.748-3.948,6.023-3.948,9.828s1.315,7.062,3.948,9.771
				c2.632,2.709,5.851,4.064,9.655,4.064s7.032-1.355,9.684-4.064c2.652-2.709,3.978-5.966,3.978-9.771s-1.325-7.08-3.978-9.828
				C6178,1342.196,6174.772,1340.821,6170.967,1340.821z"/>
			<path fill="#3B4D4F" d="M6221.347,1377.771c-6.38,0-11.855-2.238-16.429-6.716c-4.573-4.477-6.859-9.904-6.859-16.284
				c0-6.379,2.286-11.826,6.859-16.342s10.049-6.773,16.429-6.773h13.604c0,2.536-0.894,4.698-2.68,6.485
				c-1.787,1.786-3.949,2.68-6.485,2.68h-4.438c-3.805,0-7.043,1.375-9.713,4.122c-2.672,2.748-4.006,6.023-4.006,9.828
				s1.334,7.062,4.006,9.771c2.67,2.709,5.908,4.064,9.713,4.064h4.438c2.536,0,4.698,0.894,6.485,2.68
				c1.786,1.787,2.68,3.949,2.68,6.485H6221.347z"/>
			<path fill="#3B4D4F" d="M6260.141,1377.771c-6.38,0-11.855-2.238-16.429-6.716c-4.573-4.477-6.859-9.904-6.859-16.284
				c0-6.379,2.286-11.826,6.859-16.342s10.049-6.773,16.429-6.773h13.661c0,2.536-0.903,4.698-2.709,6.485
				c-1.807,1.786-3.978,2.68-6.514,2.68h-4.438c-3.767,0-6.975,1.384-9.627,4.15c-2.651,2.768-3.977,6.034-3.977,9.8
				c0,3.767,1.325,7.014,3.977,9.742c2.652,2.729,5.86,4.093,9.627,4.093h4.438c2.536,0,4.707,0.894,6.514,2.68
				c1.806,1.787,2.709,3.949,2.709,6.485H6260.141z M6256.913,1350.102h16.89c0,2.553-0.903,4.719-2.709,6.497
				c-1.807,1.779-3.978,2.668-6.514,2.668h-7.667c-1.268,0-2.344-0.435-3.228-1.305c-0.885-0.87-1.326-1.943-1.326-3.22
				c0-1.314,0.433-2.416,1.297-3.306C6254.521,1350.546,6255.606,1350.102,6256.913,1350.102z"/>
			<path fill="#3B4D4F" d="M6298.761,1349.699c0-4.995,1.796-9.252,5.39-12.769c3.593-3.517,7.906-5.274,12.941-5.274h13.258
				c0,2.575-0.903,4.747-2.709,6.514c-1.807,1.769-3.997,2.651-6.571,2.651h-2.018c-2.96,0-5.486,1.066-7.58,3.199
				c-2.096,2.133-3.142,4.698-3.142,7.696v8.012c0,4.996-1.787,9.252-5.361,12.769c-3.573,3.517-7.878,5.274-12.912,5.274h-13.258
				c0-2.536,0.894-4.698,2.681-6.485c1.787-1.786,3.948-2.68,6.484-2.68h2.075c2.998,0,5.534-1.066,7.609-3.199
				s3.112-4.698,3.112-7.696V1349.699z"/>
		</g>
	</g>
	<g id="sing_libraries">
		<g>
			<path fill="#3B4D4F" d="M6333.357,1349.699c0-4.995,1.796-9.252,5.39-12.769c3.593-3.517,7.906-5.274,12.941-5.274h13.258
				c0,2.575-0.903,4.747-2.709,6.514c-1.807,1.769-3.997,2.651-6.571,2.651h-2.018c-2.96,0-5.486,1.066-7.58,3.199
				c-2.096,2.133-3.142,4.698-3.142,7.696v8.012c0,4.996-1.787,9.252-5.361,12.769c-3.573,3.517-7.878,5.274-12.912,5.274h-13.258
				c0-2.536,0.894-4.698,2.681-6.485c1.787-1.786,3.948-2.68,6.484-2.68h2.075c2.998,0,5.534-1.066,7.609-3.199
				s3.112-4.698,3.112-7.696V1349.699z"/>
			<path fill="#3B4D4F" d="M6377.051,1377.771c-2.652,0-4.929-0.951-6.831-2.854s-2.854-4.179-2.854-6.831v-36.431
				c2.651,0,4.929,0.951,6.831,2.854s2.854,4.179,2.854,6.831V1377.771z"/>
			<path fill="#3B4D4F" d="M6418.784,1354.771c0-3.766-1.325-7.032-3.978-9.8c-2.651-2.767-5.86-4.15-9.626-4.15
				c-3.805,0-7.032,1.375-9.685,4.122c-2.651,2.748-3.977,6.023-3.977,9.828v13.315c0,2.652-0.951,4.929-2.854,6.831
				s-4.18,2.854-6.831,2.854v-23c0-6.379,2.286-11.826,6.859-16.342s10.068-6.773,16.486-6.773c6.379,0,11.854,2.258,16.429,6.773
				c4.572,4.516,6.859,9.963,6.859,16.342v23c-2.651,0-4.929-0.951-6.831-2.854s-2.854-4.179-2.854-6.831V1354.771z"/>
			<path fill="#3B4D4F" d="M6479.771,1378.75c0,6.418-2.297,11.855-6.889,16.313c-4.593,4.458-10.098,6.687-16.515,6.687h-13.604
				c0-2.536,0.894-4.697,2.68-6.484c1.787-1.787,3.949-2.681,6.485-2.681h4.438c3.805,0,7.041-1.354,9.713-4.063
				c2.671-2.71,4.006-5.967,4.006-9.771v-0.979h-13.776c-6.38,0-11.865-2.238-16.457-6.716c-4.593-4.477-6.889-9.904-6.889-16.284
				c0-6.379,2.299-11.826,6.896-16.342s10.091-6.773,16.478-6.773s11.89,2.258,16.506,6.773c4.617,4.516,6.927,9.963,6.927,16.342
				V1378.75z M6469.914,1368.606v-13.835c0-3.805-1.319-7.08-3.957-9.828c-2.639-2.747-5.863-4.122-9.676-4.122
				s-7.037,1.375-9.676,4.122c-2.638,2.748-3.956,6.023-3.956,9.828s1.318,7.062,3.956,9.771c2.639,2.709,5.863,4.064,9.676,4.064
				H6469.914z"/>
			<path fill="#3B4D4F" d="M6519.372,1354.771c0,3.805,1.325,7.062,3.977,9.771c2.652,2.709,5.88,4.064,9.685,4.064h4.438
				c2.536,0,4.698,0.894,6.485,2.68c1.786,1.787,2.68,3.949,2.68,6.485h-13.604c-6.38,0-11.865-2.238-16.457-6.716
				c-4.593-4.477-6.889-9.904-6.889-16.284v-34.586c2.651,0,4.929,0.951,6.831,2.853c1.902,1.902,2.854,4.18,2.854,6.831V1354.771z"
				/>
			<path fill="#3B4D4F" d="M6553.899,1377.771c-2.652,0-4.929-0.951-6.831-2.854s-2.854-4.179-2.854-6.831v-36.431
				c2.651,0,4.929,0.951,6.831,2.854s2.854,4.179,2.854,6.831V1377.771z"/>
			<path fill="#3B4D4F" d="M6568.367,1329.869v1.787h13.661c6.417,0,11.922,2.239,16.515,6.716
				c4.592,4.478,6.889,9.905,6.889,16.284c0,6.38-2.306,11.827-6.917,16.342c-4.612,4.517-10.107,6.773-16.486,6.773
				c-6.38,0-11.865-2.257-16.457-6.773c-4.593-4.515-6.889-9.962-6.889-16.342v-34.471c2.651,0,4.929,0.951,6.831,2.853
				C6567.416,1324.94,6568.367,1327.217,6568.367,1329.869z M6595.631,1354.656c0-3.805-1.319-7.062-3.957-9.771
				c-2.639-2.709-5.863-4.064-9.676-4.064h-13.632v13.835c0,3.805,1.318,7.081,3.956,9.828c2.639,2.748,5.863,4.122,9.676,4.122
				s7.037-1.374,9.676-4.122C6594.312,1361.737,6595.631,1358.46,6595.631,1354.656z"/>
			<path fill="#3B4D4F" d="M6619.727,1368.086c0,2.652-0.951,4.929-2.854,6.831s-4.179,2.854-6.831,2.854v-23.115
				c0-6.379,2.296-11.807,6.889-16.284c4.592-4.477,10.078-6.716,16.457-6.716h13.604c0,2.536-0.894,4.698-2.681,6.485
				c-1.787,1.786-3.948,2.68-6.485,2.68h-4.438c-3.804,0-7.032,1.355-9.684,4.064s-3.978,5.966-3.978,9.771V1368.086z"/>
			<path fill="#3B4D4F" d="M6695.643,1354.771v23h-23.403c-6.38,0-11.865-2.238-16.457-6.716c-4.593-4.477-6.889-9.904-6.889-16.284
				c0-6.379,2.296-11.826,6.889-16.342c4.592-4.516,10.077-6.773,16.457-6.773c6.379,0,11.875,2.258,16.486,6.773
				S6695.643,1348.392,6695.643,1354.771z M6685.843,1368.606v-13.835c0-3.805-1.319-7.08-3.957-9.828
				c-2.639-2.747-5.863-4.122-9.676-4.122s-7.037,1.375-9.676,4.122c-2.638,2.748-3.956,6.023-3.956,9.828s1.318,7.062,3.956,9.771
				c2.639,2.709,5.863,4.064,9.676,4.064H6685.843z"/>
			<path fill="#3B4D4F" d="M6710.745,1368.086c0,2.652-0.951,4.929-2.854,6.831s-4.179,2.854-6.831,2.854v-23.115
				c0-6.379,2.296-11.807,6.889-16.284c4.592-4.477,10.078-6.716,16.457-6.716h13.604c0,2.536-0.894,4.698-2.681,6.485
				c-1.787,1.786-3.948,2.68-6.485,2.68h-4.438c-3.804,0-7.032,1.355-9.684,4.064s-3.978,5.966-3.978,9.771V1368.086z"/>
			<path fill="#3B4D4F" d="M6749.596,1377.771c-2.652,0-4.929-0.951-6.831-2.854s-2.854-4.179-2.854-6.831v-36.431
				c2.651,0,4.929,0.951,6.831,2.854s2.854,4.179,2.854,6.831V1377.771z"/>
			<path fill="#3B4D4F" d="M6777.667,1377.771c-6.38,0-11.855-2.238-16.429-6.716c-4.573-4.477-6.859-9.904-6.859-16.284
				c0-6.379,2.286-11.826,6.859-16.342s10.049-6.773,16.429-6.773h13.661c0,2.536-0.903,4.698-2.709,6.485
				c-1.807,1.786-3.978,2.68-6.514,2.68h-4.438c-3.767,0-6.975,1.384-9.627,4.15c-2.651,2.768-3.977,6.034-3.977,9.8
				c0,3.767,1.325,7.014,3.977,9.742c2.652,2.729,5.86,4.093,9.627,4.093h4.438c2.536,0,4.707,0.894,6.514,2.68
				c1.806,1.787,2.709,3.949,2.709,6.485H6777.667z M6774.439,1350.102h16.89c0,2.553-0.903,4.719-2.709,6.497
				c-1.807,1.779-3.978,2.668-6.514,2.668h-7.667c-1.268,0-2.344-0.435-3.228-1.305c-0.885-0.87-1.326-1.943-1.326-3.22
				c0-1.314,0.433-2.416,1.297-3.306C6772.047,1350.546,6773.132,1350.102,6774.439,1350.102z"/>
			<path fill="#3B4D4F" d="M6816.289,1349.699c0-4.995,1.796-9.252,5.39-12.769c3.593-3.517,7.906-5.274,12.941-5.274h13.258
				c0,2.575-0.903,4.747-2.709,6.514c-1.807,1.769-3.997,2.651-6.571,2.651h-2.018c-2.96,0-5.486,1.066-7.58,3.199
				c-2.096,2.133-3.142,4.698-3.142,7.696v8.012c0,4.996-1.787,9.252-5.361,12.769c-3.573,3.517-7.878,5.274-12.912,5.274h-13.258
				c0-2.536,0.894-4.698,2.681-6.485c1.787-1.786,3.948-2.68,6.484-2.68h2.075c2.998,0,5.534-1.066,7.609-3.199
				s3.112-4.698,3.112-7.696V1349.699z"/>
		</g>
	</g>
</g>
</svg>
